# xmcd
#
# Track frame offsets:
#	150
#	20182
#	34607
#	50787
#	65675
#	79317
#	95025
#	109597
#	123610
#	140540
#	154025
#	168515
#
# Disc length: 2443 seconds
# Revision: 2
# Processed by: cddbd v1.5.2PL0 Copyright (c) Steve Scherf et al.
# Submitted via: dBpowerAMP V12.0
#
DISCID=ad09890c
DTITLE=Siriporn Ampaipong (ศิริพร อำไพพงษ์) - Pop 10 Years (รวมฮิต 10 ปี) [PGM CD 208]
DYEAR=1991
DGENRE=Thai
TTITLE0=Black Lovely Bowl - โบว์รักสีดำ
TTITLE1=Your Change End Year - สิ้นปีพี่เปลี่ยนใจ
TTITLE2=Past Love Tip - อดีตรักวันนำเที่ยว
TTITLE3=Bored Word Love - เบื่อแล้วคำว่ารัก
TTITLE4=Forgot Promise - สัญญาเก่าที่เขาลืม
TTITLE5=A Farmer Girl Miss One - สาวนาอาลัย
TTITLE6=I Will See A Lucky Man - อยากเห็นคนโชคดี
TTITLE7=A Sad News Of Factory Girl - ข่าวเศร้าสาวโรงงาน
TTITLE8=Come Back To Mother - กลับนามาหาแม่
TTITLE9=Mother Teach You Must Learn Before - เรียนก่อนแม่สอนไว้
TTITLE10=Beware A Man Is Him Wife Unbeware - ระวังหนุ่มเมียเผลอ
TTITLE11=I Don't A Position - ตำแหน่งที่ไม่ต้องการ
EXTD=
EXTT0=
EXTT1=
EXTT2=
EXTT3=
EXTT4=
EXTT5=
EXTT6=
EXTT7=
EXTT8=
EXTT9=
EXTT10=
EXTT11=
PLAYORDER=
